<svg width="41" height="33" viewBox="0 0 41 33" fill="none" xmlns="http://www.w3.org/2000/svg">
<path d="M37.682 26.9807C38.4929 26.981 39.2727 27.267 39.8596 27.7793C40.4465 28.2916 40.7957 28.991 40.8346 29.7325C40.8736 30.4741 40.5994 31.2009 40.069 31.7624C39.5385 32.3239 38.7923 32.6771 37.9851 32.7487L37.682 32.7622H3.99774C3.18676 32.7619 2.40701 32.4759 1.82008 31.9636C1.23315 31.4513 0.884029 30.7519 0.845056 30.0104C0.806083 29.2688 1.08025 28.542 1.61074 27.9805C2.14123 27.419 2.88738 27.0658 3.69458 26.9941L3.99774 26.9807H37.682ZM37.682 13.4903C38.5195 13.4903 39.3227 13.7949 39.9149 14.337C40.5071 14.8791 40.8398 15.6144 40.8398 16.3811C40.8398 17.1478 40.5071 17.8831 39.9149 18.4252C39.3227 18.9673 38.5195 19.2719 37.682 19.2719H3.99774C3.16021 19.2719 2.35699 18.9673 1.76477 18.4252C1.17255 17.8831 0.839844 17.1478 0.839844 16.3811C0.839844 15.6144 1.17255 14.8791 1.76477 14.337C2.35699 13.7949 3.16021 13.4903 3.99774 13.4903H37.682ZM37.682 0C38.5195 0 39.3227 0.304564 39.9149 0.846691C40.5071 1.38882 40.8398 2.1241 40.8398 2.89078C40.8398 3.65747 40.5071 4.39275 39.9149 4.93488C39.3227 5.47701 38.5195 5.78157 37.682 5.78157H3.99774C3.16021 5.78157 2.35699 5.47701 1.76477 4.93488C1.17255 4.39275 0.839844 3.65747 0.839844 2.89078C0.839844 2.1241 1.17255 1.38882 1.76477 0.846691C2.35699 0.304564 3.16021 0 3.99774 0H37.682Z" fill="white"/>
</svg>
